# xmcd
#
# Track frame offsets:
# 150
# 17180
# 30433
# 44806
# 61707
# 77236
# 92209
# 104380
# 120031
# 132229
#
# Disc length: 1935 seconds
#
#
# Revision: 0
# Processed by: cddbd v1.5.2PL0 Copyright (c) Steve Scherf et al.
# Submitted via: FreeRIP 2.945 
#
DISCID=79078d0a
DTITLE=Reba McEntire - Just A Little Love
DYEAR=1900
DGENRE=Country
TTITLE0=Just A Little Love
TTITLE1=Poison Sugar
TTITLE2=Im Gettin Over You
TTITLE3=You Are Always There For Me
TTITLE4=Every Second Someone Breaks A Hear
TTITLE5=Tell Me Whats So Good About Goodbye
TTITLE6=He Broke Your Memory Last Night
TTITLE7=If Only
TTITLE8=Congratulations
TTITLE9=Silver Eagle
EXTD=
EXTT0=
EXTT1=
EXTT2=
EXTT3=
EXTT4=
EXTT5=
EXTT6=
EXTT7=
EXTT8=
EXTT9=
PLAYORDER=
